<svg xmlns="http://www.w3.org/2000/svg" viewBox="0 0 900 360" role="img" aria-labelledby="title desc">
  <title id="title">Multi Parts S&amp;A</title>
  <desc id="desc">Logo vectorial para Multi Parts S&amp;A con engranaje, llave y automóvil.</desc>
  <rect width="900" height="360" fill="#fff"/>
  <g transform="translate(35 70)">
    <circle cx="95" cy="115" r="78" fill="#061b38"/>
    <circle cx="95" cy="115" r="52" fill="#f8fafc"/>
    <g fill="#061b38">
      <rect x="86" y="-5" width="18" height="44" rx="4"/>
      <rect x="86" y="191" width="18" height="44" rx="4"/>
      <rect x="-25" y="106" width="44" height="18" rx="4"/>
      <rect x="171" y="106" width="44" height="18" rx="4"/>
    </g>
    <circle cx="95" cy="115" r="18" fill="#ff4b00"/>
    <path d="M55 100c8-18 25-28 43-28 20 0 38 12 45 31" fill="none" stroke="#061b38" stroke-width="10" stroke-linecap="round"/>
    <circle cx="68" cy="113" r="7" fill="#061b38"/><circle cx="123" cy="113" r="7" fill="#061b38"/>
    <path d="M72 142c16 16 34 16 50 0" fill="none" stroke="#061b38" stroke-width="8" stroke-linecap="round"/>
    <path d="M142 74l50-50 18 18-50 50z" fill="#6b7280"/>
  </g>
  <g transform="translate(250 80)">
    <path d="M40 120 C95 20 230 15 315 95 L470 105 C515 110 545 140 552 176 L492 176 C482 145 438 145 426 176 L178 176 C168 145 124 145 112 176 L35 176 C25 150 25 135 40 120Z" fill="#061b38"/>
    <path d="M116 105 C170 43 250 42 310 100 L390 106 C360 120 210 120 116 105Z" fill="#fff"/>
    <path d="M70 94 C155 15 315 8 430 72" fill="none" stroke="#ff4b00" stroke-width="10" stroke-linecap="round"/>
    <circle cx="145" cy="181" r="32" fill="#111827"/><circle cx="145" cy="181" r="14" fill="#f8fafc"/>
    <circle cx="458" cy="181" r="32" fill="#111827"/><circle cx="458" cy="181" r="14" fill="#f8fafc"/>
  </g>
  <text x="210" y="292" font-family="Arial Black, Arial, sans-serif" font-size="72" font-style="italic" fill="#061b38">Multi</text>
  <text x="425" y="292" font-family="Arial Black, Arial, sans-serif" font-size="72" font-style="italic" fill="#ff4b00">Parts</text>
  <text x="635" y="292" font-family="Arial Black, Arial, sans-serif" font-size="72" font-style="italic" fill="#061b38">S&amp;A</text>
  <path d="M180 320h330" stroke="#061b38" stroke-width="24" stroke-linecap="round"/>
  <circle cx="540" cy="320" r="22" fill="#061b38"/>
  <circle cx="540" cy="320" r="9" fill="#fff"/>
</svg>
